<svg xmlns="http://www.w3.org/2000/svg" xml:space="preserve" width="100%" height="100%" viewBox="-10 35 245 215"><defs><style>@media (prefers-color-scheme: dark) { path { fill: #ffffff !important; stroke: #ffffff !important; } }</style><clipPath id="a" clipPathUnits="userSpaceOnUse"><path d="M39.1 40.2h132.7v122H39.1z" style="fill:#000;stroke-width:.346027"/></clipPath></defs><path d="M90.4 220.1c-1-.3-1.5-.7-2-2l-1.6-3.3-1.4-3-1.8-3.9-5.7-12.3-.8-1.7c-.1-.1-.3 0-2.3 2.6l-.4.5v19.6q0 1.7-.9 2.6a3 3 0 0 1-4.5-.3c-.6-1-.6 1-.6-24.5l.1-23.4q.1-1.6 1.6-2.3a3 3 0 0 1 4.1 1.6c.2.3.2 1.1.2 8.7v8.3l.7-.8 6.2-7.9 4-5.1c3.2-4.1 3-4 3.8-4.4q1-.3 2-.2a3 3 0 0 1 2.3 3.1c-.1.8-.3 1.1-1.5 2.7l-10.7 13.7.4 1 3.9 8.5 1.1 2.4a105 105 0 0 1 3.9 8.4L93 214c1.1 2.5 1.2 2.6 1.2 3.3q-.1 2.1-2.2 2.9-.9.2-1.6 0m-32.4 0q-1.2-.5-1.8-1.6l-.2-.4v-47.5l.2-.5a3 3 0 0 1 3.3-1.7q1.5.3 2 1.6l.3.6v47.2l-.2.5q-.6 1.1-1.5 1.6-1 .3-2 .1m44.8 0a3 3 0 0 1-1.6-1.2q-.5-1-.5-1.8l1.3-6.9 2.5-13.3.3-1.4 1.2-6.4 2.2-11.1.1-1 .2-1 .8-4c.4-1.8.5-2.2 1.3-2.8q2-1.6 4.2.2c.5.5.6.9 1.3 4l1.1 6 1 5.3 1.8 9 .2 1 1.1 6 1.2 6 1 5.7.4 2c.6 2.6.6 3.3.1 4.2a3 3 0 0 1-1.3 1.3q-.3.3-1.2.2t-1.3-.2a3 3 0 0 1-1.5-1.7l-.5-2-1.5-8-1.8-9.6-1.2-6.2-.9-4.3-.2-1.4-.1.5-1 4.4-1.6 9-2 9.8-1.6 8c-.1.5-.9 1.2-1.4 1.5-.6.2-1.6.3-2.1.1m30.3 0a3 3 0 0 1-2.2-2.4 1670 1670 0 0 1 .4-38.8v-7.2l.3-.7q.5-1.7 1.8-2.2l.5-.3h10.8c1.9.1 2.3.2 3.6.9a11 11 0 0 1 5.1 6.4l.2.6.2.7a20 20 0 0 1 .4 7.6 14 14 0 0 1-3.2 7.3l.4.6a13 13 0 0 1 1.6 4.3c.2 1 .2 2.4.2 13.3v7.6l-.1.5q-.6 1-1.5 1.6c-.4.2-.6.2-1.4.2q-1 0-1.3-.2-1.5-.7-1.6-2.5l-.2-9.2-.1-9.3a7 7 0 0 0-1.5-4l-.3-.3H137v1l-.3 21.8q-.3 1.7-1.7 2.4-.5.3-1.1.3zm11.5-31.5c1.4-.1 1.6-.2 2.3-1.2q1-1.2 1.4-3.7.3-1.8 0-3.4-.5-4.2-2.5-5.5l-.4-.2-4-.1h-4l-.2 12.4v1.7zM92 155.3h-.9A59 59 0 0 1 68 149q-1.4-.6-1.8-2a3 3 0 0 1 3.1-3.7q.6 0 1.6.5l1.7.8a52 52 0 0 0 27.7 4.5 39 39 0 0 0 6.8-1.2 33 33 0 0 0 6.5-2l2.1-.9a68 68 0 0 0 9.9-5.5l2.8-2.2a56 56 0 0 0 14.6-19.1l1.8-4.6A55 55 0 0 0 131 55.8c-1.4-1.4-1.5-1.6-1.5-2.8 0-.9 0-1 .2-1.4q.4-.7 1.3-1.3 1-.5 2-.2.8.1 1.3.6l1.2 1.2a68 68 0 0 1 10.3 13.4 63 63 0 0 1 7.7 35.9 60 60 0 0 1-13.6 32.9 64 64 0 0 1-16.6 13.8 58 58 0 0 1-31.3 7.4m0-10.7-1.8-.1a56 56 0 0 1-9.3-2 6 6 0 0 1-2.2-1.1 3 3 0 0 1 .8-4.7c.4-.2.5-.3 1.2-.2s.9 0 2 .4a36 36 0 0 0 21.7.6l4.9-1.7a45 45 0 0 0 15.5-11.4 49 49 0 0 0 10-19.7 52 52 0 0 0 1-16.1 78 78 0 0 0-2-8.7q-1.5-4.6-3.9-8.7c-1-1.7-1-1.9-1-2.7 0-.7 0-.8.2-1.3q.5-1 1.4-1.4 1.2-.5 2.3 0c.8.4 1.1.7 2 2l1.1 2.1a46 46 0 0 1 5.1 14.4 53 53 0 0 1-21.8 52.8 45 45 0 0 1-27.3 7.5m-28.2-10.2a7 7 0 0 1-3.8-1.9 8 8 0 0 1-2.2-4.3c-.2-.8-.3-1.2-.3-2.5a34 34 0 0 1 2-10q1.6-4 3.8-8.3l1-2-.3-.8a28 28 0 0 1 2.4-23.4A31 31 0 0 1 79 69.5a30 30 0 0 1 14.6-2.7h1l.7-.6a86 86 0 0 1 11-8.1c2-1.2 5-2.6 7-3q3.5-.9 6.2 0 3.2 1.4 4.4 5c.6 2 .5 5.4-.3 8.6a49 49 0 0 1-5 13l-1.3 2.4.2.4a31 31 0 0 1 1.7 9.8c0 2.1 0 2.5-.2 3.9a30 30 0 0 1-11 18.7 33 33 0 0 1-7 4 26 26 0 0 1-14.3 2c-.2 0-.2 0-2 1.5a68 68 0 0 1-14 9 14 14 0 0 1-7 1m4.3-6.3 2.6-1.1c1.3-.7 1.6-.8 3.3-1.9a59 59 0 0 0 5.6-4l-.3-.2-3.2-1.6a31 31 0 0 1-8.4-7.5l-.4.6-2.7 6.9-.9 3.4-.2 2.8.1 2q.3.8.8 1h1.3c1 0 1.1 0 2.4-.4M94.2 117a23.5 23.5 0 0 0 19.1-20.2v-5.4l-.3.3a157 157 0 0 1-19.6 24.8l-.7.7h.3zm-7.3-2.4a178 178 0 0 0 13.2-14.8 238 238 0 0 0 8.8-12.7q1.9-2.7 2-3.2l-.5-.7a22 22 0 0 0-18.8-10.5A23 23 0 0 0 68.8 100a22 22 0 0 0 16 16.6zm27.4-37.2a51 51 0 0 0 4.2-12.7q.2-3.1-.7-3.8c-.8-.6-2.9-.3-5.2.7a51 51 0 0 0-10.6 7.1l.4.3a28 28 0 0 1 11.6 8.9zm-22 56.2-1.2-.1q-2-.2-2.8-1.4c-.5-.7-.6-2-.3-3q.5-.7 1.3-1.3c.7-.3 1.3-.4 3.4-.3 2.2.1 2.9 0 5.4-.3q4-.7 7.6-2.5a29 29 0 0 0 8.5-6A35 35 0 0 0 124.6 92a32 32 0 0 0-2.4-8.9c-.4-1-.5-1.3-.5-2q0-1.6 1.6-2.5c.5-.3.5-.3 1.3-.3q.9 0 1.2.2c1 .4 1.3 1 2.1 2.8a34 34 0 0 1 2.6 17 41 41 0 0 1-19 30 42 42 0 0 1-7.8 3.6 34 34 0 0 1-11.4 1.6" clip-path="url(#a)" style="fill:#000" transform="matrix(1.75927 0 0 1.67843 -75.2 -27.9)"/></svg>
